<?xml version="1.0" encoding="UTF-8"?>
<svg version="1.1" xmlns="http://www.w3.org/2000/svg" width="1445" height="1442">
<path d="M0 0 C476.85 0 953.7 0 1445 0 C1445 475.86 1445 951.72 1445 1442 C968.15 1442 491.3 1442 0 1442 C0 966.14 0 490.28 0 0 Z " fill="#7ED0CA" transform="translate(0,0)"/>
<path d="M0 0 C21.12 0 42.24 0 64 0 C64 126.72 64 253.44 64 384 C85.12 384 106.24 384 128 384 C128 426.24 128 468.48 128 512 C106.88 512 85.76 512 64 512 C64 533.12 64 554.24 64 576 C21.76 576 -20.48 576 -64 576 C-64 512.64 -64 449.28 -64 384 C-85.12 384 -106.24 384 -128 384 C-128 426.24 -128 468.48 -128 512 C-212.48 512 -296.96 512 -384 512 C-384 490.88 -384 469.76 -384 448 C-405.12 448 -426.24 448 -448 448 C-448 426.88 -448 405.76 -448 384 C-511.36 384 -574.72 384 -640 384 C-640 362.88 -640 341.76 -640 320 C-618.88 320 -597.76 320 -576 320 C-576 256.64 -576 193.28 -576 128 C-597.12 128 -618.24 128 -640 128 C-640 106.88 -640 85.76 -640 64 C-428.8 64 -217.6 64 0 64 C0 42.88 0 21.76 0 0 Z " fill="#8067DD" transform="translate(1127,404)"/>
<path d="M0 0 C21.12 0 42.24 0 64 0 C64 126.72 64 253.44 64 384 C85.12 384 106.24 384 128 384 C128 426.24 128 468.48 128 512 C106.88 512 85.76 512 64 512 C64 533.12 64 554.24 64 576 C21.76 576 -20.48 576 -64 576 C-64 512.64 -64 449.28 -64 384 C-42.88 384 -21.76 384 0 384 C0 320.64 0 257.28 0 192 C-21.12 192 -42.24 192 -64 192 C-64 170.88 -64 149.76 -64 128 C-106.24 128 -148.48 128 -192 128 C-192 149.12 -192 170.24 -192 192 C-213.12 192 -234.24 192 -256 192 C-256 170.88 -256 149.76 -256 128 C-340.48 128 -424.96 128 -512 128 C-512 191.36 -512 254.72 -512 320 C-533.12 320 -554.24 320 -576 320 C-576 256.64 -576 193.28 -576 128 C-597.12 128 -618.24 128 -640 128 C-640 106.88 -640 85.76 -640 64 C-428.8 64 -217.6 64 0 64 C0 42.88 0 21.76 0 0 Z " fill="#010000" transform="translate(1127,404)"/>
<path d="M0 0 C63.36 0 126.72 0 192 0 C192 21.12 192 42.24 192 64 C255.36 64 318.72 64 384 64 C384 85.12 384 106.24 384 128 C426.24 128 468.48 128 512 128 C512 85.76 512 43.52 512 0 C533.12 0 554.24 0 576 0 C576 63.36 576 126.72 576 192 C554.88 192 533.76 192 512 192 C512 213.12 512 234.24 512 256 C448.64 256 385.28 256 320 256 C320 277.12 320 298.24 320 320 C277.76 320 235.52 320 192 320 C192 298.88 192 277.76 192 256 C170.88 256 149.76 256 128 256 C128 234.88 128 213.76 128 192 C106.88 192 85.76 192 64 192 C64 149.76 64 107.52 64 64 C42.88 64 21.76 64 0 64 C0 42.88 0 21.76 0 0 Z " fill="#67420A" transform="translate(487,980)"/>
<path d="M0 0 C105.6 0 211.2 0 320 0 C320 21.12 320 42.24 320 64 C341.12 64 362.24 64 384 64 C384 85.12 384 106.24 384 128 C405.12 128 426.24 128 448 128 C448 149.12 448 170.24 448 192 C257.92 192 67.84 192 -128 192 C-128 170.88 -128 149.76 -128 128 C-106.88 128 -85.76 128 -64 128 C-64 106.88 -64 85.76 -64 64 C-42.88 64 -21.76 64 0 64 C0 42.88 0 21.76 0 0 Z " fill="#584995" transform="translate(679,212)"/>
<path d="M0 0 C21.12 0 42.24 0 64 0 C64 63.36 64 126.72 64 192 C42.88 192 21.76 192 0 192 C0 234.24 0 276.48 0 320 C-42.24 320 -84.48 320 -128 320 C-128 298.88 -128 277.76 -128 256 C-191.36 256 -254.72 256 -320 256 C-320 234.88 -320 213.76 -320 192 C-341.12 192 -362.24 192 -384 192 C-384 149.76 -384 107.52 -384 64 C-341.76 64 -299.52 64 -256 64 C-256 85.12 -256 106.24 -256 128 C-171.52 128 -87.04 128 0 128 C0 85.76 0 43.52 0 0 Z " fill="#96A2FC" transform="translate(999,788)"/>
<path d="M0 0 C63.36 0 126.72 0 192 0 C192 21.12 192 42.24 192 64 C213.12 64 234.24 64 256 64 C256 85.12 256 106.24 256 128 C277.12 128 298.24 128 320 128 C320 149.12 320 170.24 320 192 C510.08 192 700.16 192 896 192 C896 213.12 896 234.24 896 256 C684.8 256 473.6 256 256 256 C256 234.88 256 213.76 256 192 C234.88 192 213.76 192 192 192 C192 170.88 192 149.76 192 128 C170.88 128 149.76 128 128 128 C128 106.88 128 85.76 128 64 C85.76 64 43.52 64 0 64 C0 42.88 0 21.76 0 0 Z " fill="#93C2E4" transform="translate(231,212)"/>
<path d="M0 0 C84.48 0 168.96 0 256 0 C256 21.12 256 42.24 256 64 C277.12 64 298.24 64 320 64 C320 42.88 320 21.76 320 0 C362.24 0 404.48 0 448 0 C448 21.12 448 42.24 448 64 C469.12 64 490.24 64 512 64 C512 85.12 512 106.24 512 128 C343.04 128 174.08 128 0 128 C0 85.76 0 43.52 0 0 Z " fill="#564894" transform="translate(615,532)"/>
<path d="M0 0 C21.12 0 42.24 0 64 0 C64 63.36 64 126.72 64 192 C42.88 192 21.76 192 0 192 C0 213.12 0 234.24 0 256 C-63.36 256 -126.72 256 -192 256 C-192 213.76 -192 171.52 -192 128 C-234.24 128 -276.48 128 -320 128 C-320 106.88 -320 85.76 -320 64 C-256.64 64 -193.28 64 -128 64 C-128 85.12 -128 106.24 -128 128 C-85.76 128 -43.52 128 0 128 C0 85.76 0 43.52 0 0 Z " fill="#1B1718" transform="translate(999,980)"/>
<path d="M0 0 C63.36 0 126.72 0 192 0 C192 42.24 192 84.48 192 128 C170.88 128 149.76 128 128 128 C128 149.12 128 170.24 128 192 C85.76 192 43.52 192 0 192 C0 128.64 0 65.28 0 0 Z " fill="#1B191A" transform="translate(1063,788)"/>
<path d="M0 0 C63.36 0 126.72 0 192 0 C192 21.12 192 42.24 192 64 C170.88 64 149.76 64 128 64 C128 106.24 128 148.48 128 192 C85.76 192 43.52 192 0 192 C0 128.64 0 65.28 0 0 Z " fill="#98BED8" transform="translate(487,788)"/>
<path d="M0 0 C21.12 0 42.24 0 64 0 C64 63.36 64 126.72 64 192 C0.64 192 -62.72 192 -128 192 C-128 170.88 -128 149.76 -128 128 C-85.76 128 -43.52 128 0 128 C0 85.76 0 43.52 0 0 Z " fill="#1B1617" transform="translate(999,980)"/>
<path d="M0 0 C63.36 0 126.72 0 192 0 C192 21.12 192 42.24 192 64 C170.88 64 149.76 64 128 64 C128 106.24 128 148.48 128 192 C106.88 192 85.76 192 64 192 C64 149.76 64 107.52 64 64 C42.88 64 21.76 64 0 64 C0 42.88 0 21.76 0 0 Z " fill="#1A1819" transform="translate(487,980)"/>
<path d="M0 0 C42.24 0 84.48 0 128 0 C128 84.48 128 168.96 128 256 C106.88 256 85.76 256 64 256 C64 192.64 64 129.28 64 64 C42.88 64 21.76 64 0 64 C0 42.88 0 21.76 0 0 Z " fill="#0B0808" transform="translate(487,468)"/>
<path d="M0 0 C105.6 0 211.2 0 320 0 C320 21.12 320 42.24 320 64 C214.4 64 108.8 64 0 64 C0 42.88 0 21.76 0 0 Z " fill="#000000" transform="translate(679,212)"/>
<path d="M0 0 C21.12 0 42.24 0 64 0 C64 42.24 64 84.48 64 128 C85.12 128 106.24 128 128 128 C128 149.12 128 170.24 128 192 C85.76 192 43.52 192 0 192 C0 128.64 0 65.28 0 0 Z " fill="#1A1719" transform="translate(1063,788)"/>
<path d="M0 0 C21.12 0 42.24 0 64 0 C64 63.36 64 126.72 64 192 C42.88 192 21.76 192 0 192 C0 128.64 0 65.28 0 0 Z " fill="#1A1818" transform="translate(423,788)"/>
<path d="M0 0 C21.12 0 42.24 0 64 0 C64 21.12 64 42.24 64 64 C85.12 64 106.24 64 128 64 C128 85.12 128 106.24 128 128 C85.76 128 43.52 128 0 128 C0 85.76 0 43.52 0 0 Z " fill="#4F4284" transform="translate(999,276)"/>
<path d="M0 0 C63.36 0 126.72 0 192 0 C192 21.12 192 42.24 192 64 C128.64 64 65.28 64 0 64 C0 42.88 0 21.76 0 0 Z " fill="#141213" transform="translate(231,148)"/>
<path d="M0 0 C42.24 0 84.48 0 128 0 C128 21.12 128 42.24 128 64 C85.76 64 43.52 64 0 64 C0 42.88 0 21.76 0 0 Z " fill="#191617" transform="translate(679,1236)"/>
<path d="M0 0 C42.24 0 84.48 0 128 0 C128 21.12 128 42.24 128 64 C85.76 64 43.52 64 0 64 C0 42.88 0 21.76 0 0 Z " fill="#664109" transform="translate(871,1108)"/>
<path d="M0 0 C21.12 0 42.24 0 64 0 C64 42.24 64 84.48 64 128 C42.88 128 21.76 128 0 128 C0 85.76 0 43.52 0 0 Z " fill="#99BED8" transform="translate(1127,788)"/>
<path d="M0 0 C42.24 0 84.48 0 128 0 C128 21.12 128 42.24 128 64 C85.76 64 43.52 64 0 64 C0 42.88 0 21.76 0 0 Z " fill="#827761" transform="translate(935,532)"/>
<path d="M0 0 C42.24 0 84.48 0 128 0 C128 21.12 128 42.24 128 64 C85.76 64 43.52 64 0 64 C0 42.88 0 21.76 0 0 Z " fill="#121011" transform="translate(487,468)"/>
<path d="M0 0 C42.24 0 84.48 0 128 0 C128 21.12 128 42.24 128 64 C85.76 64 43.52 64 0 64 C0 42.88 0 21.76 0 0 Z " fill="#111010" transform="translate(231,276)"/>
<path d="M0 0 C21.12 0 42.24 0 64 0 C64 21.12 64 42.24 64 64 C42.88 64 21.76 64 0 64 C0 42.88 0 21.76 0 0 Z " fill="#1A1819" transform="translate(615,1172)"/>
<path d="M0 0 C21.12 0 42.24 0 64 0 C64 21.12 64 42.24 64 64 C42.88 64 21.76 64 0 64 C0 42.88 0 21.76 0 0 Z " fill="#856AEB" transform="translate(935,852)"/>
<path d="M0 0 C21.12 0 42.24 0 64 0 C64 21.12 64 42.24 64 64 C42.88 64 21.76 64 0 64 C0 42.88 0 21.76 0 0 Z " fill="#95A4F7" transform="translate(1063,724)"/>
<path d="M0 0 C21.12 0 42.24 0 64 0 C64 21.12 64 42.24 64 64 C42.88 64 21.76 64 0 64 C0 42.88 0 21.76 0 0 Z " fill="#1A1818" transform="translate(487,724)"/>
<path d="M0 0 C21.12 0 42.24 0 64 0 C64 21.12 64 42.24 64 64 C42.88 64 21.76 64 0 64 C0 42.88 0 21.76 0 0 Z " fill="#867664" transform="translate(807,532)"/>
<path d="M0 0 C21.12 0 42.24 0 64 0 C64 21.12 64 42.24 64 64 C42.88 64 21.76 64 0 64 C0 42.88 0 21.76 0 0 Z " fill="#111011" transform="translate(423,404)"/>
<path d="M0 0 C21.12 0 42.24 0 64 0 C64 21.12 64 42.24 64 64 C42.88 64 21.76 64 0 64 C0 42.88 0 21.76 0 0 Z " fill="#000000" transform="translate(1063,340)"/>
<path d="M0 0 C21.12 0 42.24 0 64 0 C64 21.12 64 42.24 64 64 C42.88 64 21.76 64 0 64 C0 42.88 0 21.76 0 0 Z " fill="#000000" transform="translate(551,340)"/>
<path d="M0 0 C21.12 0 42.24 0 64 0 C64 21.12 64 42.24 64 64 C42.88 64 21.76 64 0 64 C0 42.88 0 21.76 0 0 Z " fill="#111011" transform="translate(359,340)"/>
<path d="M0 0 C21.12 0 42.24 0 64 0 C64 21.12 64 42.24 64 64 C42.88 64 21.76 64 0 64 C0 42.88 0 21.76 0 0 Z " fill="#000000" transform="translate(999,276)"/>
<path d="M0 0 C21.12 0 42.24 0 64 0 C64 21.12 64 42.24 64 64 C42.88 64 21.76 64 0 64 C0 42.88 0 21.76 0 0 Z " fill="#000000" transform="translate(615,276)"/>
<path d="M0 0 C21.12 0 42.24 0 64 0 C64 21.12 64 42.24 64 64 C42.88 64 21.76 64 0 64 C0 42.88 0 21.76 0 0 Z " fill="#1A1819" transform="translate(487,276)"/>
<path d="M0 0 C21.12 0 42.24 0 64 0 C64 21.12 64 42.24 64 64 C42.88 64 21.76 64 0 64 C0 42.88 0 21.76 0 0 Z " fill="#1A1819" transform="translate(423,212)"/>
<path d="M0 0 C21.12 0 42.24 0 64 0 C64 21.12 64 42.24 64 64 C42.88 64 21.76 64 0 64 C0 42.88 0 21.76 0 0 Z " fill="#121011" transform="translate(167,212)"/>
<path d="M0 0 C21.12 0 42.24 0 64 0 C64 21.12 64 42.24 64 64 C42.88 64 21.76 64 0 64 C0 42.88 0 21.76 0 0 Z " fill="#1A1819" transform="translate(359,148)"/>
</svg>
